<svg width="1221" height="1221" viewBox="0 0 1221 1221" fill="none" xmlns="http://www.w3.org/2000/svg">
<rect width="1221" height="1221" fill="white"/>
<path d="M375.023 986.618C330.839 985.708 312.495 1010.56 278.694 975.294C195.918 888.172 150.496 772.134 152.131 651.97C154.727 530.936 204.942 415.806 291.881 331.56C385.571 242.242 500.12 197.479 629.699 202.361C749.152 206.86 859.567 257.63 941.798 344.041C1025.15 431.33 1070.77 547.933 1068.78 668.609C1066.95 762.399 1036.26 853.343 980.887 929.055C972.461 940.525 957.714 959.711 947.885 969.094C927.936 988.127 897.945 994.247 871.19 992.546C866.079 992.22 860.71 991.974 855.759 990.333C851.26 996.879 834.287 1004.1 826.745 1006.22C790.015 1016.54 745.669 1009.53 707.511 1010.1C700.367 1010.21 691.322 1011.72 684.119 1012.46C669.047 1014.08 653.822 1013.57 638.896 1010.93C634.889 1010.23 629.659 1009.57 626.157 1007.67C620.734 1004.73 622.216 998.447 620.601 993.437C618.687 987.522 611.669 984.472 606.187 982.983C602.931 982.093 594.889 978.909 592.055 978.683C545.456 975.028 499.822 1010.45 453.767 989.343C449.344 987.316 435.664 980.192 440.114 974.151C446.176 971.965 455.534 979.268 461.188 981.9C476.692 989.117 492.515 990.905 509.481 988.612C518.865 987.343 538.855 982.638 541.238 971.473C540.823 969.911 540.79 969.014 539.12 968.157C526.387 961.658 519.534 976.776 510.683 979.481L510.062 978.644C510.014 977.793 509.761 976.112 510.623 975.394C534.162 955.79 552.91 905.942 522.885 883.978C521.514 882.975 516.381 882.184 514.344 881.845C511.09 888.384 500.294 920.396 489.091 912.328C481.891 899.31 500.119 883.972 510.171 878.157C511.996 872.86 513.796 859.643 513.07 854.007C511.514 841.926 495.604 800.657 500.565 791.712C502.716 790.283 501.91 790.702 504.988 790.848C516.595 806.452 518.306 829.645 518.113 848.378C518.759 858.207 523.032 873.944 529.213 881.593C526.403 863.57 526.679 849.362 529.271 831.299C531.167 818.095 533.706 805.628 532.981 792.277C531.45 764.047 516.523 742.643 510.064 716.306C507.904 707.495 508.106 689.943 508.294 680.575C508.518 669.439 511.198 656.297 518.163 647.225C530.948 630.572 550.597 620.838 547.019 596.467C546.599 593.625 545.87 590.836 544.845 588.152C537.052 585.132 534.381 584.294 529.96 576.901C521.041 580.669 505.378 591.319 497.112 586.615C482.626 578.371 472.821 577.561 456.897 583.749C444.549 588.548 428.76 598.604 422.399 611.174C420.609 615.017 422.136 625.079 415.642 630.254L414.435 630.162C411.094 625.611 413.785 619.874 415.504 615.279C406.413 625.179 405.207 633.081 399.135 643.214C384.226 668.095 398.912 665.485 415.244 682.359C415.047 677.633 414.851 672.865 414.497 668.152C413.985 661.344 410.675 648.464 415.558 642.905C418.525 643.261 419.794 648.541 420.067 651.083C420.963 659.398 420.421 667.956 421.004 676.321C421.46 683.41 421.678 690.121 420.721 697.184C418.956 710.209 409.993 720.369 405.338 732.321C401.517 742.581 403.915 752.472 400.815 763.19C397.501 774.64 391.725 784.329 387.507 795.008C379.838 814.426 375.629 836.237 374.379 857.024C374.076 862.061 372.626 872.568 374.593 877.007C381.137 881.626 382.019 904.167 377.242 910.952L375.863 911.597C369.157 908.228 370.517 886.251 370.514 878.901C366.546 880.503 362.469 889.102 360.695 893.023C348.77 919.412 358.775 960.854 376.104 982.996C383.102 983.382 401.879 986.711 402.076 995.57C397.29 1004.48 380.271 992.812 375.824 987.555L375.023 986.618Z" fill="white"/>
<path d="M375.023 986.618C330.839 985.708 312.495 1010.56 278.694 975.294C195.918 888.172 150.496 772.134 152.131 651.97C154.727 530.936 204.942 415.806 291.881 331.56C385.571 242.242 500.12 197.479 629.699 202.361C749.152 206.86 859.567 257.63 941.798 344.041C1025.15 431.33 1070.77 547.933 1068.78 668.609C1066.95 762.399 1036.26 853.343 980.887 929.055C972.461 940.525 957.714 959.711 947.885 969.094C927.936 988.127 897.945 994.247 871.19 992.546C866.079 992.22 860.71 991.974 855.759 990.333C851.26 996.879 834.287 1004.1 826.745 1006.22C790.015 1016.54 745.669 1009.53 707.511 1010.1C700.367 1010.21 691.322 1011.72 684.119 1012.46C669.047 1014.08 653.822 1013.57 638.896 1010.93C634.889 1010.23 629.659 1009.57 626.157 1007.67C620.734 1004.73 622.216 998.447 620.601 993.437C618.687 987.522 611.669 984.472 606.187 982.983C602.931 982.093 594.889 978.909 592.055 978.683C545.456 975.028 499.822 1010.45 453.767 989.343C449.344 987.316 435.664 980.192 440.114 974.151C446.176 971.965 455.534 979.268 461.188 981.9C476.692 989.117 492.515 990.905 509.481 988.612C518.865 987.343 538.855 982.638 541.238 971.473C540.823 969.911 540.79 969.014 539.12 968.157C526.387 961.658 519.534 976.776 510.683 979.481L510.062 978.644C510.014 977.793 509.761 976.112 510.623 975.394C534.162 955.79 552.91 905.942 522.885 883.978C521.514 882.975 516.381 882.184 514.344 881.845C511.09 888.384 500.294 920.396 489.091 912.328C481.891 899.31 500.119 883.972 510.171 878.157C511.996 872.86 513.796 859.643 513.07 854.007C511.514 841.926 495.604 800.657 500.565 791.712C502.716 790.283 501.91 790.702 504.988 790.848C516.595 806.452 518.306 829.645 518.113 848.378C518.759 858.207 523.032 873.944 529.213 881.593C526.403 863.57 526.679 849.362 529.271 831.299C531.167 818.095 533.706 805.628 532.981 792.277C531.45 764.047 516.523 742.643 510.064 716.306C507.904 707.495 508.106 689.943 508.294 680.575C508.518 669.439 511.198 656.297 518.163 647.225C530.948 630.572 550.597 620.838 547.019 596.467C546.599 593.625 545.87 590.836 544.845 588.152C537.052 585.132 534.381 584.294 529.96 576.901C521.041 580.669 505.378 591.319 497.112 586.615C482.626 578.371 472.821 577.561 456.897 583.749C444.549 588.548 428.76 598.604 422.399 611.174C420.609 615.017 422.136 625.079 415.642 630.254L414.435 630.162C411.094 625.611 413.785 619.874 415.504 615.279C406.413 625.179 405.207 633.081 399.135 643.214C384.226 668.095 398.912 665.485 415.244 682.359C415.047 677.633 414.851 672.865 414.497 668.152C413.985 661.344 410.675 648.464 415.558 642.905C418.525 643.261 419.794 648.541 420.067 651.083C420.963 659.398 420.421 667.956 421.004 676.321C421.46 683.41 421.678 690.121 420.721 697.184C418.956 710.209 409.993 720.369 405.338 732.321C401.517 742.581 403.915 752.472 400.815 763.19C397.501 774.64 391.725 784.329 387.507 795.008C379.838 814.426 375.629 836.237 374.379 857.024C374.076 862.061 372.626 872.568 374.593 877.007C381.137 881.626 382.019 904.167 377.242 910.952L375.863 911.597C369.157 908.228 370.517 886.251 370.514 878.901C370.894 877.014 370.659 873.638 370.601 871.611L370.701 867.178C370.889 844.225 374.949 816.526 383.369 795.467C387.867 784.216 393.837 773.57 397.471 761.787C400.49 752.001 398.204 741.622 401.482 732.285C406.6 717.706 421.197 701.893 418.002 685.129C416.633 686.173 416.395 686.462 415.163 687.663L413.975 687.368C411.508 684.376 410.013 682.617 407.164 679.962C402.231 675.361 391.013 669.804 389.005 663.468C386.549 654.566 393.386 646.12 397.23 638.492C402.242 628.548 406.98 613.741 418.468 609.84C429.592 590.218 456.635 575.353 479.37 575.924C487.331 576.124 496.6 584.389 505.777 583.276C517.059 581.907 531.087 566.304 542.416 573.143C547.493 576.7 549.582 590.458 550.543 596.141C554.698 621.009 534.797 632.402 521.95 648.737C506.611 668.24 509.829 708.995 518.387 730.807C525.617 749.233 534.971 769.516 536.188 789.293C538.04 819.371 525.726 848.538 532.385 878.855C533.02 881.765 533.02 882.124 531.346 884.237C531.994 887.62 538.455 896.239 540.268 903.589C545.897 926.43 537.517 944.393 526.956 963.479C532.405 962.827 537.202 961.784 541.661 965.665C547.68 970.902 543.714 977.314 539.796 981.84C557.237 979.308 564.739 974.902 585.045 974.444C555.036 955.976 556.458 975.314 567.018 943.289C566.038 930.543 560.607 916.023 561.998 903.151C563.857 885.945 565.169 867.438 585.037 862.228C574.89 853.216 567.612 839.354 566.227 825.711C565.819 821.69 565.4 816.938 567.418 813.337C571.499 810.745 574.34 814.925 576.896 817.789C570.768 807.13 563.851 791.559 565.609 778.833C567.595 764.472 576.61 751.577 579.367 736.891C586.941 696.536 586.716 653.857 601.023 614.976C609.117 593.335 627.333 584.972 647.229 577.28C653.496 574.859 660.148 571.082 667.046 568.299C666.707 560.852 666.601 555.991 666.967 548.467C652.366 552.276 650.785 538.957 642.671 529.195C629.001 512.749 625.173 508.01 623.738 487.098C621.957 485.853 620.734 486.859 617.378 486.343L616.74 485.391C617.591 483.897 620.92 482.693 622.807 481.754C614.261 464.915 596.066 459.04 597.495 435.085C597.873 428.616 599.767 412.137 608.42 412.585C613.809 416.446 612.168 440.68 614.241 447.741C615.431 451.785 617.444 454.211 620.109 457.335C638.477 478.833 663.91 479.117 685.534 498.6C705.584 516.666 703.052 539.442 716.004 558.37C724.955 571.455 746.38 579.254 756.754 594.624C772.949 618.607 768.862 636.96 763.752 663.31C758.276 691.585 776.093 700.576 790.52 719.426C799.95 731.748 799.206 743.445 796.614 757.913C813.553 726.582 800.747 711.37 782.931 686.083C763.685 658.777 781.522 627.811 788.274 599.919C792.401 581.607 791.949 563.677 785.157 546.31C761.067 484.734 677.294 483.882 643.608 430.274C634.995 416.558 631.161 403.123 634.703 387.147C614.454 401.559 609.755 410.134 624.296 432.825C641.056 458.781 664.475 478.605 692.931 490.337C731.94 506.416 763.725 532.685 770.577 576.384C771.7 583.541 774.079 603.204 771.64 609.474L770.763 609.755C768.643 606.192 767.653 578.934 766.124 572.2C753.996 518.657 711.206 504.163 667.638 481.692C651.841 473.546 629.28 448.498 619.338 432.416C603.701 407.111 614.354 395.129 636.61 382.092C637.115 381.171 637.64 380.262 638.192 379.365C645.329 367.791 659.364 362.315 672.084 359.173C693.429 353.902 713.784 358.888 732.365 370.402C758.083 386.345 769.44 412.619 778.093 440.351C782.16 453.375 784.413 465.633 792.048 477.501C806.941 500.648 829.689 511.035 839.438 538.188C849.379 565.87 832.593 589.034 836.301 614.728C838.574 630.475 860.231 646.326 863.421 665.686C865.813 680.173 862.67 690.117 854.981 702.744C853.539 705.103 849.539 711.211 847.106 711.748C846.575 709.96 847.459 706.942 847.857 704.919C850.808 689.826 852.396 678.713 843.611 665.264C850.496 697.446 841.504 713.909 825.19 741.283C821.229 747.927 816.457 755.009 814.65 762.625C813.234 768.599 817.521 774.254 820.604 779.119L819.986 779.903C815.181 780.116 807.253 775.105 805.685 770.367C799.584 751.93 814.411 734.98 821.887 719.079C835.178 690.819 807.326 672.902 800.349 647.762C791.105 621.794 799.79 595.056 797.597 568.78C795.75 546.537 782.426 523.582 772.624 503.841C771.208 500.986 762.483 482.75 761.373 481.75C721.573 445.785 658.926 451.073 636.278 394.139C642.724 465.037 720.49 470.395 765.46 511.456C792.892 536.501 799.79 569.86 790.852 605.55C786.347 623.529 775.441 647.066 778.678 665.349C784.2 692.338 806.183 699.948 807.532 729.844C808.496 751.193 795.039 771.849 773.454 777.85C772.271 778.182 770.876 777.159 770.058 776.288C770.238 774.082 773.235 771.895 774.458 769.775C790.5 741.925 754.634 728.002 746.174 705.529C736.346 679.428 755.737 660.847 751.178 635.86C748.367 620.476 737.376 611.943 725.108 604.066L725.128 607.027C734.99 620.547 737.615 631.13 735.01 648.005C731.98 667.682 718.456 684.562 732 703.797C734.817 707.8 743.523 714.947 743.875 716.677C741.29 717.711 739.23 716.684 736.831 715.722C713.831 706.503 716.662 680.723 721.613 661.304C724.869 648.525 727.328 634.387 717.506 623.84C709.372 614.437 698.832 609.18 688.797 602.137C683.401 598.357 678.636 593.542 674.104 588.818C665.358 587.035 655.084 586.278 650.592 581.023C649.383 579.608 627.359 589.771 625.067 591.767C605.469 604.385 600.306 626.203 596.039 647.59C590.16 677.11 588.576 706.918 583.34 736.567C580.297 753.793 570.096 766.532 569.543 783.399C569.32 790.237 571.082 794.078 572.863 800.139C574.702 806.405 584.322 820.56 581.565 825.784C577.07 827.086 572.616 820.308 570.099 817.191C568.96 835.858 578.577 857.057 597.162 864.494C603.808 867.145 610.965 863.909 616.64 860.281C620.242 851.415 623.193 834.655 625.685 824.248C629.885 806.738 639.195 784.415 642.039 767.071C644.332 753.095 634.424 693.646 648.173 685.246C655.982 685.675 655.224 705.091 655.663 710.613C657.277 731.016 648.751 750.337 646.492 769.802C644.658 785.565 648.226 803.887 643.568 819.942C641.076 830.98 637.514 842.789 630.184 851.661C621.584 862.081 618.84 865.663 617.537 879.3C615.584 897.854 619.112 916.568 627.692 933.135C646.445 931.088 679.314 947.217 693.157 958.807C710.342 973.201 700.806 982.684 681.613 979.999C653.888 976.118 638.444 959.804 624.768 937.322C611.982 937.98 594.624 939.555 594.261 921.299C594.005 908.454 601.588 893.648 607.111 882.297C596.052 887.142 588.031 896.199 584.051 907.424C577.571 925.692 572.762 942.585 565.259 960.621C574.923 963.226 582.182 967.692 591.072 971.845C597.973 975.075 613.224 975.773 619.139 978.796C660.58 999.956 690.578 1012.62 736.891 998.693C771.547 988.273 817.507 978.949 853.499 986.897C865.189 976.71 869.236 963.851 871.947 948.978C862.89 958.102 854.423 964.163 842.92 969.453C825.103 977.647 802.183 979.886 787.024 965.167C775.435 953.916 770.344 930.716 750.68 930.47C736.718 929.746 707.85 944.599 696.739 934.252C694.871 932.49 693.821 930.032 693.848 927.46C693.934 912.036 735.09 894.458 747.51 887.939C758.495 882.284 769.035 875.798 779.023 868.528C826.951 834.044 838.294 784.123 854.755 731.567C867.674 690.305 877.098 672.619 865.029 627.498C863.268 621.046 861.082 614.719 858.477 608.559C855.088 600.531 841.863 577.696 846.083 571.23C848.077 570.355 849.06 570.187 851.227 571.01C884.049 583.496 886.248 619.001 889.658 649.858C894.615 694.669 899.553 748.695 892.661 793.845C891.598 800.544 889.771 807.096 887.225 813.376C883.703 822.182 877.297 833.466 872.619 841.992C877.43 869.372 892.808 895.395 886.973 923.652C885.431 931.108 878.121 939.282 876.931 944.831C873.09 962.748 871.422 973.779 858.523 987.695C883.165 989.203 900.084 990.36 923.729 979.687C944.23 970.43 952.803 956.647 966.526 939.349C1029.05 860.546 1064.49 758.219 1063.81 657.565C1062.79 557.977 1029.16 461.47 968.055 382.827C893.924 288.616 786.852 223.977 667.226 210.299C262.969 164.074 3.73366 623.187 258.807 944.765C265.734 953.351 272.97 961.684 280.498 969.745C300.278 991.197 311.024 993.915 339.691 986.997C346.551 985.336 360.611 982.378 367.351 983.588C369.544 984.419 373.9 983.608 376.104 982.996C383.102 983.382 401.879 986.711 402.076 995.57C397.29 1004.48 380.271 992.812 375.824 987.555L375.023 986.618Z" fill="#C78272"/>
<path d="M504.988 790.848C516.595 806.451 518.306 829.644 518.113 848.378C516.274 848.145 516.237 848.285 514.743 847.261L514.471 845.135C512.457 837.765 500.352 799.739 503.401 794.543C504.58 793.027 504.479 792.748 504.988 790.848Z" fill="#C78272"/>
<path d="M503.401 794.543C510.312 806.066 517.176 832.648 514.471 845.135C512.457 837.765 500.352 799.74 503.401 794.543Z" fill="white"/>
<path d="M715.312 597.652C718.815 599.817 721.745 601.693 725.108 604.066L725.128 607.026C722.144 603.914 718.489 600.609 715.312 597.652Z" fill="#F7CDC2"/>
<path d="M847.984 574.783C864.492 579.27 874.779 591.702 878.746 607.963C885.013 634.283 888.189 661.654 890.176 688.674C892.921 725.899 894.749 765.522 886.887 802.285C884.501 813.463 876.626 826.009 871.024 835.832C870.213 823.584 869.376 811.323 869.821 799.042C870.353 784.249 878.181 736.852 873.828 726.759C873.151 725.198 872.646 724.743 871.104 724.124C870.233 724.461 869.575 724.786 868.984 725.537C857.162 740.598 866.984 826.654 863.894 849.156C861.195 868.78 846.343 894.611 849.513 914.043C849.865 916.169 850.237 917.006 851.958 918.302C857.853 918.149 860.611 908.965 862.365 904.28C869.243 885.899 869.562 867.783 869.808 848.471C875.583 872.276 888.575 899.329 883.052 923.207C873.576 951.576 838.534 975.593 808.171 971.38C788.407 968.635 784.4 954.407 774.531 940.219C755.505 912.873 729.787 936.119 705.278 933.667C702.095 933.314 700.155 931.806 698.38 929.208C697.111 923.353 704.089 917.239 708.369 914.209C719.168 906.56 733.037 899.522 744.919 893.628C783.197 874.655 810.224 852.286 829.842 813.436C843.691 787.897 849.207 758.817 858.597 731.991C871.689 694.597 878.866 674.659 870.173 633.77C868.133 623.995 865.156 614.439 861.282 605.235C856.743 594.729 851.672 585.917 847.984 574.783Z" fill="white"/>
<path d="M658.8 380.695C723.693 375.851 742.267 430.245 776.013 471.798C795.784 496.146 829.423 512.02 837.278 545.592C843.418 571.817 827.203 593.91 833.55 619.441C838.129 635.762 856.271 647.686 859.434 665.711C861.375 676.738 858.544 689.931 852.609 699.238L853.712 690.282C855.659 652.271 824.671 655.498 815.86 624.926C809.327 602.266 827.815 572.752 819.986 547.499C813.806 528.449 795.644 505.995 780.878 492.507C764.284 477.349 764.231 477.633 753.624 458.197C738.991 431.361 709.339 407.049 680.384 397.306C667.093 392.835 653.556 390.868 640.73 383.559C646.399 382.95 652.659 381.445 658.8 380.695Z" fill="white"/>
<path d="M615.537 457.991C619.943 461.056 626.389 470.117 632.29 473.403C656.925 487.11 683.049 491.641 695.968 519.806C702.354 532.2 704.899 551.877 714.269 562.304C731.76 581.775 752.295 584.978 761.585 612.269C769.214 634.677 761.001 649.617 759.299 672.038C756.821 704.699 797.046 714.179 794.84 746.608C794.188 757.401 790.899 762.744 783.07 769.735L776.152 773.198C780.087 768.107 782.027 763.655 782.113 757.069C782.412 733.553 757.538 724.14 749.69 704.151C739.981 679.43 760.861 658.271 754.727 633.651C749.331 611.815 732.352 604.116 714.608 593.822C695.755 583.99 685.189 565.111 684.71 543.999C684.066 515.742 678.929 496.027 650.333 484.83C643.315 482.083 634.616 479.341 627.898 475.395C620.295 470.931 617.67 466.325 615.537 457.991Z" fill="white"/>
<path d="M767.36 485.908C774.125 489.311 787.968 505.564 793.218 511.483C807.805 527.696 820.976 547.496 817.554 570.354C814.989 588.801 807.612 607.517 812.198 626.245C813.899 633.184 818.225 640.831 823.382 645.766C832.254 654.249 839.75 658.945 841.89 672.131C844.887 690.615 839.737 707.712 830.891 723.901C824.206 736.144 816.411 746.463 811.393 759.654C810.324 765.688 811.879 766.712 811.679 771.829C810.616 771.244 810.29 771.171 809.712 769.715C802.243 750.917 822.791 732.364 827.476 714.733C835.643 683.967 808.596 670.028 802.402 641.452C797.797 620.175 799.418 606.546 801.146 585.493C804.044 550.23 783.881 516.223 767.36 485.908Z" fill="white"/>
<path d="M681.407 361.409C690.817 359.802 702.719 361.845 711.571 364.872C746.453 376.788 763.3 405.185 773.554 438.693C778.485 454.821 780.525 463.785 788.088 479.314C780.618 472.757 774.571 464.775 768.776 456.77C747.444 426.117 730.026 391.814 691.821 380.304C673.997 374.933 659.696 375.381 642.013 380.277C652.559 368.312 665.817 363.466 681.407 361.409Z" fill="white"/>
<path d="M639.375 387.5C655.544 395.504 669.2 396.931 685.727 403.489C715.845 415.44 743.929 442.975 756.761 472.789C727.401 450.442 691.476 447.859 663.246 424.405C652.58 415.542 640.711 401.893 639.375 387.5Z" fill="white"/>
<path d="M615.451 865.49C616.196 868.401 613.318 880.469 613.112 884.756C612.195 903.616 616.309 916.275 622.715 933.254C570.436 940.731 617.924 882.39 609.218 877.625C602.805 878.409 597.163 883.506 592.437 887.653C579.96 900.153 575.924 920.076 569.889 937.228C567.119 919.04 563.717 905.716 568.123 887.766C573.195 867.098 580.963 862.393 600.546 870.182C605.171 872.016 611.451 868.089 615.451 865.49Z" fill="white"/>
<path d="M805.838 988.113C818.066 986.771 838.773 988.319 850.881 990.107C829.23 1007.29 796.109 1008.43 769.826 1007.57C753.717 1006.43 737.748 1007.69 721.493 1006.14C749.411 1000.91 776.883 990.505 805.838 988.113Z" fill="white"/>
<path d="M626.323 479.063C658.295 494.425 670.11 507.446 667.519 544.063C665.499 545.01 662.289 545.869 660.076 546.54C655.51 541.945 651.157 534.122 647.124 528.587C641.389 520.714 631.746 510.628 629.327 501.097C627.692 494.652 628.051 486.948 626.543 480.044L626.323 479.063Z" fill="white"/>
<path d="M629.167 937.036C635.42 937.123 640.956 937.873 646.997 939.628C657.955 942.811 702.141 960.382 697.563 975.155C692.685 976.77 688.711 976.863 683.654 976.411C658.221 974.138 642.006 957.504 629.167 937.036Z" fill="white"/>
<path d="M679.866 589.592C684.432 590.141 698.354 594.687 702.926 596.334C725.262 604.387 734.785 624.628 730.977 647.441C727.907 665.867 717.692 683.29 726.033 702.46L726.052 702.859L725.634 703.199C713.479 686.188 728.265 659.88 728.246 642.095C728.226 614.79 698.181 607.602 679.866 589.592Z" fill="#FEF8F6"/>
<path d="M611.404 980.491C617.452 982.266 626.131 986.486 631.912 989.343C649.629 998.108 663.047 1004.02 682.903 1006.61L682.292 1008.4C662.907 1010.12 644.944 1010.66 626.45 1003.11C626.436 998.946 626.018 995.703 625.539 991.576C620.329 985.283 618.083 984.784 611.404 980.491Z" fill="white"/>
<path d="M642.019 782.282C642.219 783.066 642.351 783.385 642.378 784.136C643.388 811.822 639.979 833.599 622.608 855.064C622.083 848.571 638.976 790.569 642.019 782.282Z" fill="white"/>
<path d="M654.619 491.21C657.789 491.623 663.125 496.15 665.571 498.36C674.868 506.762 679.879 518.403 680.291 530.857C680.444 535.465 680.464 535.468 677.785 538.258L671.811 541.948C671.824 539.147 671.804 536.346 671.765 533.545C671.439 516.145 667.192 503.346 654.619 491.21Z" fill="#FFFCFA"/>
<path d="M648.499 689.869C656.6 696.426 648.639 742.184 646.605 752.776L645.994 752.916C644.16 735.722 642.419 705.539 648.499 689.869Z" fill="white"/>
<path d="M671.393 572.45C691.243 570.562 691.349 581.505 706.441 593.693C696.041 590.361 688.04 588.048 677.447 585.42C674.469 580.345 673.446 577.933 671.393 572.45Z" fill="white"/>
<path d="M680.272 541.373C680.697 542.186 680.597 541.815 680.69 542.779C681.647 552.771 683.043 560.717 686.153 570.191C683.302 569.648 680.132 569.995 678.457 567.616L679.202 565.474C677.574 564.9 672.902 567.054 671.068 567.76C670.636 560.519 670.343 554.704 670.968 547.47L680.272 541.373Z" fill="white"/>
<path d="M865.382 858.127L866.126 859.516C865.973 877.545 862.83 897.555 853.812 913.384L853.107 912.673C851.605 900.539 861.554 871.112 865.382 858.127Z" fill="white"/>
<path d="M604.865 420.079C605.669 422.924 605.004 431.252 605.961 435.639C607.184 441.242 613.73 459.929 613.597 464.441L612.799 463.857C602.419 449.791 596.804 437.404 604.865 420.079Z" fill="white"/>
<path d="M508.014 884.157L508.518 884.735C508.22 891.932 498.075 906.719 491.933 910.66C486.318 902.406 501.438 888.244 508.014 884.157Z" fill="white"/>
<path d="M870.592 729.845L871.07 730.301C872.579 734.319 868.226 782.986 866.651 788.622C863.846 783.677 867.767 737.099 870.592 729.845Z" fill="#FDF1EA"/>
<path d="M667.558 574.579C668.834 575.632 670.907 582.126 671.798 584.442L660.859 581.918C658.46 581.326 655.078 580.905 652.572 580.516C658.374 577.716 661.358 576.629 667.558 574.579Z" fill="white"/>
<path d="M443.312 977.268C449.349 979.155 457.093 984.824 463.457 987.322C467.631 988.964 478.653 991.11 481.702 992.944C474.239 993.017 444.76 985.747 443.312 977.268Z" fill="white"/>
<path d="M516.373 863.948C517.728 864.998 523.244 878.641 522.828 879.977C519.612 879.113 517.581 878.901 514.329 878.509C515.135 873.75 515.734 868.753 516.373 863.948Z" fill="white"/>
<path d="M373.473 881.354C377.833 886.284 377.325 900.114 376.394 906.414L375.743 906.527C373.364 903.297 373.394 885.912 373.473 881.354Z" fill="white"/>
<path d="M381.663 987.382C385.737 987.967 397.444 991.602 399.518 995.21C394.532 994.38 383.779 992.167 381.663 987.382Z" fill="white"/>
<path d="M534.041 575.942C539.161 575.919 543.974 577.929 543.062 583.929C540.161 582.526 533.586 579.585 534.041 575.942Z" fill="white"/>
<path d="M416.554 646.719C418.618 649.053 417.747 656.331 417.603 659.728L416.834 658.978C415.959 654.939 415.695 650.777 416.554 646.719Z" fill="#F7CDC2"/>
<path d="M682.902 1006.61C686.318 1006.69 688.737 1007.27 692.067 1007.92C688.83 1008.22 685.514 1008.69 682.291 1008.4L682.902 1006.61Z" fill="#F7CDC2"/>
<path d="M367.351 983.588L369.273 982.598C369.865 981.103 361.614 964.529 360.338 961.239C350.425 935.674 346.59 904.646 363.339 880.975C366.448 876.582 369.01 877.293 370.601 871.611C370.659 873.638 370.894 877.014 370.514 878.901C366.547 880.503 362.469 889.102 360.695 893.023C348.77 919.412 358.775 960.854 376.104 982.997C373.9 983.608 369.544 984.419 367.351 983.588Z" fill="#C38474"/>
<path d="M476.931 605.314C488.694 609.82 488.542 626.435 492.549 636.233C494.371 640.687 498.33 645.455 500.226 650.451C503.514 659.119 511.427 681.699 500.144 687.216C490.19 691.839 479.682 676.479 473.679 675.518C450.984 671.882 442.841 665.083 447.498 640.931C448.489 635.772 450.358 631.949 453.198 626.825C454.77 624.477 455.004 623.848 457.688 623.469C458.265 625.943 453.29 634.309 452.252 637.388C449.768 644.757 448.34 654.393 452.169 661.484C457.878 672.059 469.839 668.259 478.583 673.4C483.375 676.217 487.341 682.632 492.924 683.826C495.152 684.304 497.965 684.14 499.79 682.63C502.479 680.407 502.337 676.124 502.256 672.982C501.569 646.163 472.72 623.326 473.465 610.98C473.635 608.158 474.901 607.054 476.931 605.314Z" fill="#C78272"/>
<path d="M477.606 609.658C482.345 613.668 485.908 624.09 487.584 629.956C483.074 625.927 475.501 615.908 477.606 609.658Z" fill="white"/>
<path d="M407.377 982.351C408.517 982.305 410.392 982.178 411.142 983.202C424.325 1001.15 440.194 1008.67 461.982 1012.77C494.874 1018.97 525.358 1007.96 556.536 999.051C566.458 996.214 614.188 986.664 617.724 1001.05C557.643 981.454 503.232 1042.78 432.876 1007.27C423.118 1002.35 410.952 993.19 407.377 982.351Z" fill="#C78272"/>
</svg>
